<svg fill="#000" height="32" viewBox="0 0 32 32" width="32" xmlns="http://www.w3.org/2000/svg"><path d="m15.9607 4.97239c1.3732 0 2.4863-1.1131 2.4863-2.48619s-1.1131-2.4862-2.4863-2.4862c-1.3731 0-2.4861 1.11311-2.4861 2.4862s1.113 2.48619 2.4861 2.48619z"/><path d="m26.2774 29.4482c-2.4303-3.3029-4.3162-5.9665-5.6577-7.9909-1.206-1.786-2.1937-3.7098-2.942-5.7308v-8.18402h-.1895c-.4865.23749-1.0207.36086-1.562.36086-.5414 0-1.0757-.12337-1.5621-.36086h-.0475v8.81112c0 4.4304-.6184 7.6166-1.8555 9.5584-.5471.9202-1.3313 1.6765-2.2709 2.1895-.93968.5131-1.99969.7641-3.06966.7269-1.05725.0285-2.11186-.1194-3.12054-.4375v3.0331c.43723.1759.89176.3054 1.35611.3865.65682.1291 1.3247.1926 1.99411.1894 2.86538 0 5.11328-.915 6.74398-2.745 1.6308-1.83 2.7015-4.445 3.2116-7.845 1.4584 2.7584 3.6457 6.1608 6.562 10.2073h4.0099z"/></svg>
