<svg fill="#000" height="32" viewBox="0 0 32 32" width="32" xmlns="http://www.w3.org/2000/svg"><path clip-rule="evenodd" d="m19.7637 15.4122c-5.1288-2.7715-11.36919-6.36555-16.06586-9.295-1.38576-.99834-.68245-3.1172.99238-3.1172h23.23908c1.2962 0 2.1635 1.44536 1.5138 2.53906-1.5617 2.697-3.8414 6.12114-5.7455 8.83604-1.0222 1.4573-2.6882 1.7076-3.9339 1.0371zm-7.4802.9c4.959 2.6433 11.9087 6.6634 16.8466 9.7032 1.529.9417.9179 3.2006-.864 3.2006-2.9162 0-7.655.0009-12.3691.0015-4.6655.0009-9.30681.0015-12.13362.0015-1.42449 0-2.15461-1.4781-1.54965-2.5092 2.04437-3.4839 4.34204-7.0002 6.2523-9.6258.84931-1.1712 2.57777-1.4334 3.81747-.7718z" fill-rule="evenodd"/></svg>
