<svg fill="#000" height="32" viewBox="0 0 32 32" width="32" xmlns="http://www.w3.org/2000/svg"><path clip-rule="evenodd" d="m1.80034 29h28.40016c.4409 0 .7995-.3605.7995-.8037v-24.39239c0-.2411-.1096-.47072-.2946-.62227-.1851-.15384-.4295-.21354-.6648-.16532-.2193.04592-5.4164 1.14121-10.2938 5.04703-.3471.27783-.6784.56027-.9959.84269-.8178-.73707-2.5129-2.11708-5.0852-3.4925-3.93152-2.10331-7.73281-2.39722-7.89272-2.40871-.38836-.02755-.74245.23192-.83383.61538l-3.9178 16.43839c-.052543.2228-.00686.4593.12335.6476.1325.1882.33811.3122.56427.3375l1.21304.1401-1.89153 6.7967c-.068532.2434-.01827.5029.1325.7026.15078.1998.38835.3169.63736.3169zm27.60056-1.6073h-12.6101v-.9776c.9757-.0936 2.7474-.3541 4.6967-1.0776.4134-.1538.6259-.6177.4728-1.0333-.153-.4156-.6145-.6291-1.0279-.4753-1.6795.6234-3.2354.8716-4.1416.9691v-4.2893c.0183-.0735.0274-.1516.0251-.2319-.016-.434-.3678-.7761-.7995-.7761h-.0251c-.0229 0-.0434 0-.064.0022-.1485.0047-.7196-.016-1.2999-.3076-.3586-.1814-.6601-.4179-.8703-.6108.9001-1.9794 2.7367-5.8622 6.9881-9.26513 3.3695-2.69803 6.979-3.98391 8.6557-4.47528zm-25.41505-4.0719c.06019.0268.12471.0466.19273.058l.00261.0004c.09441.0167 2.55206.4508 4.31954 1.4738.12565.0734.26271.1079.39749.1079.27643 0 .54601-.1447.6945-.4019.22157-.3857.08908-.8771-.29472-1.0975-2.04686-1.1849-4.74022-1.6487-4.85444-1.667-.01064-.0018-.02128-.0035-.03189-.0048z" fill-rule="evenodd"/></svg>
