<svg fill="#000" height="32" viewBox="0 0 32 32" width="32" xmlns="http://www.w3.org/2000/svg"><path d="m16.0038 12.745h-.0039c-1.7977 0-3.255 1.4573-3.255 3.255v.0039c0 1.7977 1.4573 3.255 3.255 3.255h.0039c1.7976 0 3.255-1.4573 3.255-3.255v-.0039c0-1.7977-1.4574-3.255-3.255-3.255z"/><path d="m9.61444 12.9861c0-1.9328 1.56726-3.49999 3.49996-3.49999h6.7589l7.4861-7.48611h-18.66273l-6.69667 6.69667v11.01723h7.61444v-6.7317z"/><path d="m22.3856 12.2589v6.4983c0 1.9328-1.5672 3.5-3.5 3.5h-6.4983l-7.74668 7.7467h18.66278l6.6967-6.6967v-11.0444h-7.6145z"/></svg>
