<svg fill="#000" height="32" viewBox="0 0 32 32" width="32" xmlns="http://www.w3.org/2000/svg"><path d="m2 16.0001c0-7.73207 6.29528-14.0001 14.0609-14.0001 7.7606 0 13.7565 6.15153 13.9391 13.9395 0 2.4848-.8522 4.5757-2.9826 6.5454-1.8003 1.6644-4.8695 1.909-7.1215.6667-1.6074-.9233-2.8462-2.8893-3.8958-4.3333l-1.9479 2.9697h-4.19999l3.95649-5.8488-3.83475-5.7574h4.32175l1.7348 2.9697 1.7044-2.9697h4.3521l-3.9565 5.7577s1.887 2.8788 2.9218 4c1.0347 1.1212 2.9216 1.1515 4.139-.0606 1.3385-1.3328 1.6381-2.394 1.6436-3.9394.0208-5.98227-4.7515-10.78798-10.774-10.78798-6.0176 0-10.89567 4.85708-10.89567 10.84858 0 5.9914 4.87807 10.8484 10.89567 10.8484.8324 0 1.6301-.0696 2.4044-.2425l.6696 3.0607c-1.1018.246-1.9919.3333-3.074.3333-7.76562 0-14.0609-6.268-14.0609-13.9999z" /></svg>
