<svg fill="#000" height="32" viewBox="0 0 32 32" width="32" xmlns="http://www.w3.org/2000/svg" xmlns:xlink="http://www.w3.org/1999/xlink"><path d="m16.1652 3.83481c3.2455-3.245256 8.5073-3.245256 11.7529 0 3.2455 3.24553 3.246 8.50799.0007 11.75359l-12.2888 12.2887c-3.2456 3.2454-8.50803 3.2449-11.75356-.0007-3.245256-3.2455-3.245256-8.5073 0-11.7528zm4.5402 14.69249 5.0762-5.0761c2.0651-2.0654 2.0646-5.41388-.0007-7.47918-2.0654-2.06498-5.4132-2.06502-7.4785 0l-5.0761 5.07608zm-14.69106-.2672c-2.06529 2.0653-2.06576 5.4137-.00069 7.4791 2.06539 2.0654 5.41445 2.0654 7.47985 0l5.0754-5.0754-7.4791-7.4792z"/><path d="m6.0139 25.7397c-2.0654-2.0654-2.0654-5.4141 0-7.4795l5.0755-5.0755 7.4795 7.4795-5.0756 5.0755c-2.0653 2.0654-5.41401 2.0654-7.4794 0z" fill-opacity=".5"/></svg>
