<svg fill="#000" height="32" viewBox="0 0 32 32" width="32" xmlns="http://www.w3.org/2000/svg"><g><path clip-rule="evenodd" d="m23.3228 17.8891v-4.7508c0-.3112-.1694-.5987-.4406-.7521l-15.15466-8.52451v-.87103c0-.33069.35803-.53819.64663-.37608l15.93363 8.96542c.2734.1534.4406.4409.4406.7521v5.6218c0 .3307-.3581.5382-.6467.376l-.7812-.4387zm-4.0209 2.3169-1.4278-.804v9.5726l.7811.4389c.2886.162.6467-.0454.6467-.3762v-8.8334z" fill-rule="evenodd"/><path clip-rule="evenodd" d="m26.054 16.3328v-4.7507c0-.3112-.1692-.5987-.4406-.7521l-15.1525-8.52453v-.87319c0-.33069.3581-.538187.6467-.37608l15.9337 8.9654c.2734.1535.4405.4409.4405.7521v5.6218c0 .3307-.358.5382-.6466.376zm-4.2639 5.2392-1.1849-.6614v7.7031l.7596.4238c.2886.162.6465-.0476.6465-.3762v-6.7133c0-.1555-.0846-.3004-.2212-.376z" fill-rule="evenodd"/><path d="m22.023 13.8602v5.6217c0 .3307-.358.5382-.6466.376l-4.4788-2.5201c-.1453-.0821-.3233.0216-.3233.1881v13.0417c0 .3308-.358.5382-.6466.3761l-5.0342-2.8335c-.2734-.1535-.4405-.441-.4405-.7523v-13.3918c0-.1556-.0846-.3004-.2213-.3761l-4.79121-2.6952c-.27341-.1535-.44049-.441-.44049-.7522v-5.62173c0-.33069.35804-.53819.64663-.37608l15.93377 8.96541c.2733.1534.4404.4409.4404.7521z"/></g></svg>
