<svg fill="#000" height="32" viewBox="0 0 32 32" width="32" xmlns="http://www.w3.org/2000/svg"><g><path d="m11.3025 25.9998c5.6899 0 10.3025-4.4771 10.3025-9.9999s-4.6126-9.9999-10.3025-9.9999c-5.68991 0-10.3025 4.4771-10.3025 9.9999s4.61259 9.9999 10.3025 9.9999z"/><path clip-rule="evenodd" d="m19.5562 24.6095c2.4823-2.0883 4.0523-5.171 4.0523-8.6096 0-3.4387-1.57-6.52147-4.0523-8.60968.7306-.18226 1.4966-.2792 2.2859-.2792 5.0578 0 9.1578 3.97968 9.1578 8.88888 0 4.9091-4.1 8.8887-9.1578 8.8887-.7893 0-1.5553-.097-2.2859-.2791z" fill-rule="evenodd"/></g></svg>
