<svg fill="#000" height="32" viewBox="0 0 32 32" width="32" xmlns="http://www.w3.org/2000/svg"><path d="m31.685 8.02966c-.2081-.41299-.5663-.72104-1.0078-.86726-.4415-.14623-.9144-.11292-1.3308.09346l-.0102.00482-29.3362 18.27162 30.9042-15.1831c.4164-.2064.7269-.56168.8744-.9996.1474-.43793.1138-.90698-.0943-1.31997z"/><path d="m23.0022 7.94768c.6338-.28972.9147-1.03647.6255-1.66762-.2903-.63324-1.045-.91399-1.6841-.6267l-.0181.00778-19.03195 13.45056z"/><path d="m24.1049 19.1146c.511-.2562.718-.8764.4618-1.3851-.2569-.5102-.8846-.7182-1.399-.4628l-.0143.0073-12.2374 7.0967 13.1889-5.2554z"/></svg>
