<svg fill="#000" height="32" viewBox="0 0 32 32" width="32" xmlns="http://www.w3.org/2000/svg"><path d="m4.86731 24.8009c.78877.9026 1.75098 1.6326 2.82779 2.1457 0 0 2.8998 1.3143 6.8391-.1925.558-.2172 1.0849-.5086 1.5669-.8665.2682-.2099.5168-.4441.7428-.6997-.5154-.0594-3.5165-.4545-5.3875-3.1284-1.0888-1.5534-1.2835-3.1513-1.3249-3.9098-2.44607 1.5512-4.30157 3.8955-5.26419 6.6512zm23.33049-4.1036c-.4902-.1082-.9979-.1061-1.4873.0063-.4893.1124-.9482.3323-1.3445.6441-.5421-2.1612-1.6962-3.1203-2.1417-3.4445-.7334-.5328-1.5842-.8104-2.347-1.0644-.7238-.239-1.4667-.4142-2.2204-.5234.5233.633.9449 1.3458 1.2489 2.1119 1.0282 2.5982.3267 4.9303.1853 5.372-.4977 1.541-1.4477 2.8915-2.723 3.8713-.2721.208-2.0944 1.5602-4.6581 1.5898-1.0635.0136-2.1183-.1933-3.09994-.6078 0 .0054 2.55514 1.344 5.87434 1.3474 4.6868.0047 7.9833-2.6563 8.49-3.077 2.7172-2.2572 3.8134-4.9979 4.2208-6.2257zm-24.26865-18.59399c-1.09811.21806-2.1133.7452-2.92915 1.52097.67083.06365 1.31589.29351 1.87831.6693.46849.31735.86712.7294 1.17086 1.21029 1.05574-1.13285 2.26435-2.10876 3.58992-2.89875-1.15208-.56403-2.45211-.73987-3.70994-.50181zm-.48274 20.46409c-1.31942-2.6128-1.77344-5.5863-1.29488-8.4808.4436-2.5996 1.61009-5.017 3.36255-6.96855.67448-.74622 1.42932-1.4136 2.2504-1.9897 1.97338-1.37741 4.27062-2.20326 6.65972-2.39423 1.2391-.10134 2.486-.02334 3.7033.23165 2.8918.63757 4.9755 2.22472 5.9943 3.30938.5106.5598.9803 1.15639 1.4056 1.78503.7594 1.20083.9094 1.50677 1.4669 2.97172.4167 1.0968 1.0709 2.3638 2.117 2.6259.6415.1627 1.7336.0337 1.8756.9556.1821 1.161-1.5862 1.81-2.4417 1.9046-.7781.0858-1.5069-.0817-2.2443-.3079-1.0282-.3148-2.0424-.6754-3.0639-1.0131-.2374-.0784-.475-.1561-.7128-.233-1.1868-.3843-2.5217-.7578-4.33-.8969-2.1604-.1655-3.7567.131-4.3221.2492-2.1966.4564-4.26233 1.4118-6.04165 2.794-1.86442 1.4455-3.36617 3.3158-4.38338 5.4591zm19.81929-10.5069c-.0184.1121-.0036.2272.0427.3309.0462.1035.1217.191.2169.2511s.2059.0902.3181.0866c.1122-.0035.2208-.0407.3121-.1069.0913-.0661.1611-.1581.2008-.2645.0396-.1063.0472-.2222.0219-.3329-.0254-.1108-.0826-.2114-.1645-.2892-.0818-.0778-.1845-.1293-.2952-.1479-.0735-.0123-.1487-.01-.2213.0071s-.1412.0485-.2018.0924c-.0606.0438-.1121.0994-.1515.1635-.0394.064-.066.1353-.0782.2098z" /></svg>
