<svg fill="#000" height="32" viewBox="0 0 32 32" width="32" xmlns="http://www.w3.org/2000/svg"><path d="m17.0241 8.99997-.0442.04416h-.2208l-.0442.04417h-.0883l-.0442.04416h-.0883l-.0442.04417h-.0883l-.0442.04416h-.0441l-.0442.04416h-.0442l-.0883.08833h-.0442l-.0883.08833h-.0441l-.3534.35331v.04417l-.0883.08832v.04417l-.0883.08832v.0442l-.0442.0441v.0442l-.0441.0442v.0441l-.0442.0442v.0883l-.0442.0442v.0883l-.0441.0442v.1766l-.0442.0442v.6183l.0442.0442v.1766l.0441.0442v.0883l.0442.0442v.0883l.0442.0442v.0441l.0441.0442v.0442l.0442.0441v.0442l.0441.0441v.0442l.0884.0883v.0442l.4416.4416h.0442l.0883.0884h.0442l.0883.0883h.0442l.0441.0442h.0884l.0441.0441h.0442l.0441.0442h.1325l.0442.0442h.1325l.0442.0441h.7066l.0442-.0441h.1324l.0442-.0442h.0883l.0442-.0442h.0883l.0442-.0441h.0442l.0441-.0442h.0442l.0441-.0442h.0442l.0442-.0441h.0441l.0884-.0884h.0441l.4417-.4416v-.0442l.0883-.0883v-.0442l.0442-.0441v-.0442l.0441-.0441v-.0442l.0442-.0442v-.0441l.0442-.0442v-.0883l.0441-.0442v-.1325l.0442-.0442v-.1766l.0441-.0442v-.4858l-.0441-.0441v-.2209l-.0442-.0441v-.0884l-.0441-.0441v-.0883l-.0442-.0442v-.0442l-.0442-.0441v-.0884l-.0883-.0883v-.0442l-.0442-.04412v-.04417l-.1325-.13249v-.04416l-.2649-.26499h-.0442l-.1325-.13249h-.0442l-.0441-.04416h-.0442l-.0442-.04417h-.0441l-.0442-.04416h-.0441l-.0442-.04416h-.0442l-.0441-.04417h-.0884l-.0441-.04416h-.1325l-.0442-.04417h-.1766l-.0442-.04416z"/><path d="m17.5457 2-.0441.04416h-.4417l-.0441.04417h-.3533l-.0442.04416h-.265l-.0442.04417h-.2208l-.0441.04416h-.1767l-.0442.04416h-.1766l-.0442.04417h-.1766l-.0442.04416h-.1325l-.0442.04417h-.1324l-.0442.04416h-.1325l-.0442.04416h-.1325l-.0441.04417h-.0883l-.0442.04416h-.0883l-.0442.04417h-.0883l-.0442.04416h-.0883l-.0442.04416h-.0883l-.0442.04417h-.0883l-.0442.04416h-.0883l-.0442.04417h-.0883l-.0442.04416h-.0441l-.0442.04416h-.0883l-.0442.04417h-.0441l-.0442.04416h-.0442l-.0441.04417h-.0884l-.0441.04416h-.0442l-.0442.04417h-.0441l-.0442.04416h-.0441l-.0442.04416h-.0442l-.0441.04417h-.0442l-.0442.04416h-.0441l-.0442.04417h-.0442l-.0441.04416h-.0442l-.0442.04416h-.0441l-.0442.04417h-.0441l-.0442.04416h-.0442l-.0883.08833h-.0442l-.0441.04416h-.0442l-.0883.08833h-.0442l-.0441.04417h-.0442l-.0883.08832h-.0442l-.0883.08833h-.0442l-.0883.08833h-.0442l-.0883.08833h-.0442l-.0883.08833h-.0442l-.0441.04416h-.0442l-.0442.04416h-.1325l-.0441.04417h-.3533l-.0442-.04417h-.0883l-.0442-.04416h-.0442l-.0441-.04416h-.0442l-.0441-.04417h-.04421l-.26498-.26498v-.04417l-.04417-.04416v-.04416l-.04416-.04417v-.04416l-.04417-.04417v-.13249l-.04416-.04416v-.39748l-.04416-.04416v-.04417l-.04417-.04416v-.08833l-.08833-.08833v-.04416l-.17665-.17666h-.04417l-.04416-.04416h-.04416l-.04417-.04417h-.04416l-.04417-.04416h-.08832l-.04417-.04416h-6.05047l-.04417.04416h-.08832l-.04417.04416h-.04416l-.04417.04417h-.04416l-.26498.26498v.04417l-.04417.04416v.04416l-.04416.04417v.04416l-.04417.04417v.13249l-.04416.04416v25.65931l.04416.0442v.1766l.04417.0442v.0441l.04416.0442v.0442l.08833.0883v.0442l.17666.1766h.04416l.04416.0442h.04417l.04416.0442h.04417l.04416.0441h.13249l.04417.0442h6.27129l.04416-.0442h.08833l.04417-.0441h.08832l.04417-.0442h.04416l.30915-.3092v-.0441l.04416-.0442v-.0442l.04417-.0441v-.0883l.04416-.0442v-3.1798l-.04416-.0442v-.7508l-.04417-.0441v-.53l-.04416-.0442v-.4416l-.04416-.0442v-.3533l-.04417-.0441v-.3534l-.04416-.0441v-.3092l-.04417-.0441v-.3092l-.04416-.0441v-.265l-.04416-.0442v-.265l-.04417-.0441v-.2209l-.04416-.0441v-.265l-.04417-.0442v-.2208l-.04416-.0442v-.1766l-.04416-.0442v-.2208l-.04417-.0442v-.2208l-.04416-.0442v-.1766l-.04417-.0442v-.1766l-.04416-.0442v-.2208l-.04416-.0442v-.1766l-.04417-.0442v-.1767l-.04416-.0441v-.1325l-.04417-.0442v-.1766l-.04416-.0442v-.1766l-.04416-.0442v-.1767l-.04417-.0441v-.1325l-.04416-.0442v-.1766l-.04417-.0442v-.1767l-.04416-.0441v-.1325l-.04416-.0442v-.1766l-.04417-.0442v-.1325l-.04416-.0442v-.1325l-.04417-.0441v-.1767l-.04416-.0441v-.1325l-.04416-.0442v-.1325l-.04417-.0442v-.1766l-.04416-.0442v-.1325l-.04417-.0441v-.1325l-.04416-.0442v-.1766l-.04416-.0442v-.1325l-.04417-.0442v-.1325l-.04416-.0441v-.1767l-.04417-.0441v-.1325l-.04416-.0442v-.1766l-.04416-.0442v-.1325l-.04417-.0442v-.1766l-.04416-.0442v-.1325l-.04417-.0441v-.1767l-.04416-.0442v-.1325l-.04416-.0441v-.1767l-.04417-.0441v-.1767l-.04416-.0442v-.1766l-.04417-.0442v-.1766l-.04416-.0442v-.2208l-.04417-.0442v-.2208l-.04416-.0442v-.2208l-.04416-.0442v-.2649l-.04417-.0442v-.3092l-.04416-.0441v-.3975l-.04417-.0442v-1.23655l.04417-.04416v-.26499l.04416-.04416v-.17666l.04417-.04416v-.13249l.04416-.04417v-.13249l.04416-.04416v-.04417l.04417-.04416v-.08833l.04416-.04416v-.04417l.04417-.04416v-.04417l.04416-.04416v-.04416l.08833-.08833v-.04417l.08833-.08832v-.04417l.13249-.13249v-.04416l.17666-.17666h.04416l.17666-.17666h.04416l.08833-.08833h.04416l.08833-.08832h.04416l.04417-.04417h.04416l.04417-.04416h.04416l.04416-.04417h.08833l.04417-.04416h.04416l.04416-.04416h.08833l.04417-.04417h.08832l.04417-.04416h.13249l.04416-.04417h.1325l.04416-.04416h.17666l.04416-.04416h.22081l.0442-.04417h.1766l.0442-.04416h.2208l.0442-.04417h.265l.0441-.04416h.265l.0442-.04416h.3091l.0442-.04417h.3533l.0442-.04416h.4416l.0442-.04417h.5741l.0442-.04416h2.2523l.0442.04416h.4858l.0442.04417h.3533l.0441.04416h.265l.0442.04417h.2208l.0442.04416h.1766l.0442.04416h.1766l.0442.04417h.1325l.0442.04416h.1325l.0441.04417h.1325l.0442.04416h.0883l.0442.04416h.1325l.0441.04417h.0884l.0441.04416h.0442l.0442.04417h.0883l.0441.04416h.0884l.0441.04416h.0442l.0442.04417h.0441l.0442.04416h.0442l.0441.04417h.0883l.0884.08832h.0441l.0442.04417h.0442l.0441.04416h.0442l.0442.04417h.0441l.0884.08832h.0441l.0883.08833h.0442l.1325.1325h.0442l.2208.22082h.0441l.1767.17665v.04417l.2208.22082v.04416l.0884.08833v.04416l.0883.08833v.04416l.0883.08833v.04417l.0442.04416v.04416l.0441.04417v.04416l.0442.04417v.08832l.0442.04417v.04416l.0441.04417v.13249l.0442.04416v.08833l.0442.04416v.17666l.0441.04416v.30917l.0442.0441v.5742l.0441.0441v.1325l.0442.0442v.0883l.0442.0442v.0883l.0441.0442v.0441l.0442.0442v.0442l.0883.0883v.0442l.0884.0883v.0442l.2649.2649h.0442l.1325.1325h.0442l.0883.0884h.0442l.0441.0441h.0442l.0442.0442h.0441l.0442.0442h.0441l.0442.0441h.0442l.0441.0442h.0442l.0442.0441h.0883l.0442.0442h.0883l.0441.0442h.0884l.0441.0441h.1325l.0442.0442h.1767l.0441.0442h.1767l.0441.0441h.2209l.0441.0442h.3533l.0442.0442h.53l.0441.0441h2.1199l.0442.0442h.1325l.0441.0442h.0884l.0441.0441h.0883l.0442.0442h.0442l.0883.0883h.0442l.3533.3533v.0442l.0441.0442v.0441l.0442.0442v.0441l.0442.0442v.0883l.0441.0442v.1767l.0442.0441v.5742l-.0442.0441v.1325l-.0441.0442v.0441l-.0442.0442v.0442l-.0442.0441v.0442l-.0441.0442v.0441l-.4417.4417h-.0441l-.0884.0883h-.0441l-.0442.0442h-.0441l-.0884.0883h-.0883l-.0442.0441h-.0441l-.0442.0442h-.0442l-.0441.0442h-.0884l-.0441.0441h-.0883l-.0442.0442h-.1325l-.0442.0442h-.1325l-.0441.0441h-.1767l-.0441.0442h-.265l-.0442.0442h-.3533l-.0442.0441h-2.2523l-.0442-.0441h-2.5615l-.0442.0441h-.4416l-.0442.0442h-.265l-.0441.0441h-.2208l-.0442.0442h-.1767l-.0441.0442h-.0884l-.0441.0441h-.0884l-.0441.0442h-.0883l-.0442.0442h-.0883l-.0442.0441h-.0442l-.0441.0442h-.0884l-.0441.0442h-.0442l-.0441.0441h-.0442l-.0442.0442h-.0441l-.0884.0883h-.0441l-.0884.0883h-.0441l-.0884.0884h-.0441l-.4858.4858v.0441l-.1325.1325v.0442l-.0442.0442v.0441l-.0883.0884v.0441l-.0442.0442v.0441l-.0441.0442v.0442l-.0442.0441v.0884l-.0442.0441v.0442l-.0441.0442v.0441l-.0442.0442v.0883l-.0442.0442v.0883l-.0441.0442v.0883l-.0442.0442v.0883l-.0441.0442v.1324l-.0442.0442v.1325l-.0442.0442v.1325l-.0441.0441v.1325l-.0442.0442v.1766l-.0442.0442v.1325l-.0441.0442v.2208l-.0442.0441v.1767l-.0442.0442v.2649l-.0441.0442v.2208l-.0442.0442v.3091l-.0442.0442v.3092l-.0441.0441v.3533l-.0442.0442v.4416l-.0441.0442v.4858l-.0442.0442v.6624l-.0442.0442v.8391l-.0441.0442v4.1514l.0441.0442v.0883l.0442.0441v.0442l.0442.0442v.0441l.3091.3092h.0442l.0441.0442h.0884l.0441.0441h.0884l.0441.0442h12.3659l.0442-.0442h.0883l.0442-.0441h.0883l.0442-.0442h.0442l.3091-.3092v-.0441l.0442-.0442v-.0442l.0441-.0441v-.0883l.0442-.0442v-16.0757l-.0442-.0442v-.53l-.0441-.0441v-.3975l-.0442-.0442v-.3091l-.0442-.0442v-.265l-.0441-.0441v-.2208l-.0442-.0442v-.1767l-.0441-.0441v-.1767l-.0442-.0441v-.1767l-.0442-.0442v-.1325l-.0441-.0441v-.17667l-.0442-.04417v-.08833l-.0442-.04416v-.13249l-.0441-.04417v-.13249l-.0442-.04416v-.08833l-.0442-.04416v-.08833l-.0441-.04417v-.08832l-.0442-.04417v-.08833l-.0442-.04416v-.08833l-.0441-.04416v-.08833l-.0442-.04416v-.08833l-.0441-.04417v-.04416l-.0442-.04416v-.08833l-.0442-.04417v-.04416l-.0441-.04416v-.04417l-.0442-.04416v-.08833l-.0442-.04416v-.04417l-.0441-.04416v-.04417l-.0442-.04416v-.04416l-.0442-.04417v-.04416l-.0441-.04417v-.04416l-.0442-.04417v-.04416l-.0441-.04416v-.04417l-.0442-.04416v-.04417l-.0442-.04416v-.04416l-.0441-.04417v-.04416l-.0442-.04417v-.04416l-.0442-.04416v-.04417l-.0883-.08833v-.04416l-.0442-.04416v-.04417l-.0883-.08833v-.04416l-.0883-.08833v-.04416l-.0883-.08833v-.04416l-.0884-.08833v-.04417l-.0883-.08832v-.04417l-.1325-.13249v-.04416l-.1766-.17666v-.04416l-.265-.26499v-.04416l-.795-.79496h-.0442l-.2208-.22082h-.0441l-.1767-.17665h-.0442l-.1324-.13249h-.0442l-.0883-.08833h-.0442l-.1325-.13249h-.0442l-.0441-.04417h-.0442l-.0883-.08833h-.0442l-.0883-.08832h-.0442l-.0441-.04417h-.0442l-.0883-.08833h-.0442l-.0442-.04416h-.0441l-.0442-.04416h-.0441l-.0442-.04417h-.0442l-.0441-.04416h-.0442l-.0442-.04417h-.0441l-.0442-.04416h-.0442l-.0441-.04416h-.0442l-.0442-.04417h-.0441l-.0442-.04416h-.0441l-.0442-.04417h-.0442l-.0441-.04416h-.0884l-.0441-.04417h-.0442l-.0442-.04416h-.0441l-.0442-.04416h-.0883l-.0442-.04417h-.0883l-.0442-.04416h-.0441l-.0442-.04417h-.0883l-.0442-.04416h-.0883l-.0442-.04416h-.0883l-.0442-.04417h-.0883l-.0442-.04416h-.1325l-.0441-.04417h-.0883l-.0442-.04416h-.1325l-.0442-.04416h-.1325l-.0441-.04417h-.1325l-.0442-.04416h-.1325l-.0441-.04417h-.1767l-.0442-.04416h-.2208l-.0441-.04416h-.2209l-.0441-.04417h-.265l-.0442-.04416h-.3091l-.0442-.04417h-.4416l-.0442-.04416z"/></svg>
