<svg fill="#000" height="32" viewBox="0 0 32 32" width="32" xmlns="http://www.w3.org/2000/svg"><g><path d="m3.25 1c-1.24264 0-2.25 1.00736-2.25 2.25v2.625c0 .31066.25184.5625.5625.5625h1.6875c12.3229 0 22.3125 9.9896 22.3125 22.3125v1.6875c0 .3107.2518.5625.5625.5625h2.625c1.2426 0 2.25-1.0074 2.25-2.25 0-15.3259-12.4241-27.75-27.75-27.75z"/><path d="m1 7.84375c0-.31066.25184-.5625.5625-.5625h1.6875c11.8569 0 21.4688 9.61185 21.4688 21.46875v1.6875c0 .3107-.2519.5625-.5626.5625h-4.3124c-.3107 0-.5626-.2518-.5626-.5625v-1.6875c0-8.8538-7.1774-16.0312-16.0312-16.0312h-1.6875c-.31066 0-.5625-.2519-.5625-.5626z"/><path d="m1 14.125c0-.3107.25184-.5625.5625-.5625h1.6875c8.3878 0 15.1875 6.7997 15.1875 15.1875v1.6875c0 .3107-.2518.5625-.5625.5625h-2.625c-1.2426 0-2.25-1.0074-2.25-2.25 0-5.3848-4.36522-9.75-9.75-9.75-1.24264 0-2.25-1.0074-2.25-2.25z"/></g></svg>
