<svg fill="#000" height="32" viewBox="0 0 32 32" width="32" xmlns="http://www.w3.org/2000/svg"><g><path clip-rule="evenodd" d="m8.05619 11.6288.47098-1.4574c.0959-.2963.32944-.52707.62653-.61802l1.4622-.45039c.2024-.06169.2041-.34784.0032-.41291l-1.45572-.47169c-.29542-.09602-.52559-.32994-.61713-.62746l-.44899-1.4644c-.06185-.20222-.34733-.2044-.41254-.00266l-.47099 1.45715c-.09567.29582-.32947.52659-.6263.61802l-1.4625.44992c-.2024.0624-.20455.34784-.00314.41315l1.45574.47169c.29538.09578.52555.33042.61709.6277l.44903 1.4639c.06181.2027.34732.2051.41254.0034z" fill-rule="evenodd"/><path clip-rule="evenodd" d="m31.7117 11.2907c-2.0006-.4953-2.2564-.8496-3.1711-1.0054-.9219-.1497-1.2039-.1619-2.1142 0-1.8417.3119-2.7691 1.172-4.2282 2.1141-1.0571 2.1141-.5066 1.6439-1.0571 2.1141-.3224.2755-.7507 1.7024-1.057 1.9916l-.8015.9829c-.9093.9519-.4743.7522-1.3415 1.4709-.8707.7156-2.3399 2.5747-3.1423 2.9541-.8019.3814-4.167 1.6683-5.28531 1.7041-1.10847.0391-2.82541-.3164-4.22824-.6471-1.41022-.3292-2.11412-2.1141-4.488375-4.9986.577525 1.6044 1.446905 3.0222 2.563485 4.3182 1.12941 1.2736 2.53983 2.4343 4.35181 3.1978 1.78565.7803 4.02993 1.0603 6.12803.6376 2.1038-.4054 3.9501-1.3804 5.4424-2.5079 1.4961-1.1391 2.7066-2.4366 3.7272-3.7856.2818-.3728.4307-.5814.6346-.8726l.5633-.8358c.3915-.5171.7479-1.1057 1.1357-1.618.7598-1.0728 1.5088-2.1445 2.3796-3.1317.4379-.5009.8999-.9797 1.4454-1.4401.2721-.2247.5659-.4446.8915-.6426.3305-.2135 1.222.1292 1.6518 0z" fill-rule="evenodd"/><path d="m31.1691 10.7806.4749-.1886.356.9001-.9429-.2124zm-3.4677-4.03075.2707-.43392.001.00076zm-6.0477-1.08129.0991.5019-.0021.00031zm-5.5482 3.04917-.3569-.36609.0011-.00078zm-1.0057 1.08213-.402-.31564.009-.01139.0096-.01105zm-.8366 1.06834-.4082-.3078.0032-.0041.003-.0038zm-1.2923 1.7193-.4094-.3057.0013-.0018zm-12.173984 5.3839-.476452.1848-.320464-.8287.876508.1386zm1.249504 2.3301.40654-.3099.00275.0037.00274.0038zm1.91829 1.9724-.29618.4169-.00498-.0037-.00496-.0037zm1.25938.7851-.22593.4588-.00266-.0015-.00283-.0013zm1.47023.5715-.13502.4932-.00209-.0005-.00218-.0006zm3.35248.2324-.06847-.507h.00099zm3.1734-.9921-.2298-.4566.0015-.0009.0016-.0007zm2.5346-1.6627.3263.3934-.0014.0012-.0014.0013zm3.6024-3.9645-.4167-.2955.0007-.0012zm1.3434-2.0873.4417.2567-.0014.0023zm.483-.8336-.4418-.2569.0026-.0045.0026-.0042zm.4489-.7174-.4253-.2835.0006-.0006zm1.9382-2.2055.3163.4018-.004.0031-.0037.003zm3.0503-1.0821.0375.5101-.0004.0001zm4.0732.6515c-.6026-1.52296-1.7281-2.81986-3.2645-3.78619l.5434-.86632c1.6958 1.06657 2.9781 2.525 3.6709 4.27531zm-3.2634-3.78574c-1.5013-.93955-3.6008-1.4241-5.678-1.013l-.1981-1.00358c2.3437-.46395 4.7063.07797 6.4174 1.14905zm-5.6801-1.01269c-1.0341.20037-2.0382.58669-2.9183 1.10085l-.5147-.88373c.9768-.5705 2.0888-.99879 3.2391-1.22156zm-2.9183 1.10064c-.8852.51751-1.6808 1.14174-2.3712 1.8132l-.7115-.73375c.7437-.72383 1.6045-1.40004 2.568-1.96297zm-2.3701 1.81219c-.3428.33508-.6565.68729-.9792 1.0544l-.7667-.67622c.3228-.3671.6591-.74527 1.0322-1.11014zm-.9607 1.032-.8366 1.0683-.8038-.6314.8366-1.06828zm-.8303 1.0601-1.2922 1.7196-.8163-.6153 1.2922-1.7196zm-13.39822 6.611c.30867.7981.68302 1.5515 1.17988 2.2049l-.81282.6197c-.5745-.7557-.990239-1.6038-1.319676-2.4551zm1.18537 2.2124c.50215.6867 1.08868 1.3229 1.8124 1.8653l-.61226.819c-.81995-.6148-1.4752-1.3289-2.02423-2.0798zm1.80252 1.8582c.38209.2721.77006.5297 1.19429.7454l-.46259.9123c-.49054-.2495-.92607-.5405-1.32414-.8242zm1.18885.7429c.43142.2128.89349.3988 1.38404.5382l-.27883.9842c-.55774-.1585-1.07775-.3682-1.55687-.6048zm1.37945.5369c.98079.2693 2.08523.363 3.14906.2188l.13697 1.014c-1.20909.1638-2.45186.057-3.556-.2462zm3.15005.2188c1.07528-.1436 2.10738-.4859 3.01108-.9417l.4595.9136c-.9961.5025-2.1374.882-3.3356 1.0421zm3.01418-.9433c.9144-.4537 1.7158-1.0086 2.4378-1.6004l.647.7918c-.7664.6283-1.6322 1.2297-2.6316 1.7254zm2.4349-1.5981c1.4366-1.1947 2.5583-2.5181 3.5121-3.8664l.8335.5913c-.9906 1.4003-2.1704 2.7961-3.6929 4.0621zm3.5128-3.8676c.4787-.6726.9143-1.3597 1.3188-2.0495l.8809.5179c-.4165.7106-.8686 1.4237-1.3678 2.1253zm1.3176-2.0475.483-.8336.8835.5135-.483.8337zm.4882-.8423c.1472-.2429.3016-.4968.4602-.7353l.8505.5668c-.1451.2184-.2892.4548-.4374.6993zm.4608-.7359c.6249-.9369 1.2609-1.7266 2.0543-2.329l.6172.8155c-.6614.502-1.2229 1.1837-1.8221 2.0818zm2.0464-2.3229c.8062-.6365 1.9048-1.08703 3.3297-1.19067l.0742 1.02027c-1.2443.0908-2.1426.4774-2.7711.9737zm3.329-1.19072c1.3987-.10349 2.9875.08884 4.6979.47392l-.224.9982c-1.6596-.3737-3.1392-.5451-4.3986-.4519zm-19.81439 8.84812c-2.99422.7902-4.40198.0821-6.051515-.179l.159213-1.0106c1.838982.2909 2.910362.9187 5.632022.2004zm6.61159-5.7622c-.8128 1.0917-1.6942 2.3299-2.7394 3.383-1.05234 1.0602-2.29987 1.9642-3.87219 2.3792l-.26028-.9892c1.33852-.3533 2.4336-1.1295 3.40795-2.1111.98122-.9887 1.81072-2.1528 2.64502-3.2736z"/><path clip-rule="evenodd" d="m23.9795 24.3787c0 1.202.9736 2.1771 2.1738 2.1771s2.1726-.9751 2.1726-2.1771c0-1.2019-.9724-2.177-2.1726-2.177s-2.1738.9751-2.1738 2.177z" fill-rule="evenodd"/></g></svg>
