<svg fill="#000" height="32" viewBox="0 0 32 32" width="32" xmlns="http://www.w3.org/2000/svg"><path d="m11.6053 24.0456c0 .1158-.1332.2084-.3011.2084-.191.0174-.3242-.0753-.3242-.2084 0-.1158.1332-.2085.3011-.2085.1737-.0173.3242.0753.3242.2085zm-1.80062-.2606c-.04053.1158.07526.249.24892.2837.1506.0579.3243 0 .359-.1158s-.0753-.2489-.249-.301c-.1505-.0406-.31839.0173-.35892.1331zm2.55912-.0984c-.1679.0405-.2837.1505-.2664.2837.0174.1158.1679.1911.3416.1505.1679-.0405.2837-.1505.2664-.2663-.0174-.11-.1737-.1853-.3416-.1679zm3.8097-22.1866c-8.0305 0-14.1735 6.09668-14.1735 14.1272 0 6.4209 4.04129 11.9154 9.8137 13.8492.7411.1332 1.0017-.3242 1.0017-.7006 0-.3589-.0174-2.339-.0174-3.5549 0 0-4.05286.8685-4.90396-1.7254 0 0-.66004-1.6848-1.60957-2.119 0 0-1.32587-.9091.09263-.8917 0 0 1.44167.1158 2.23487 1.4938 1.26797 2.2349 3.39283 1.5922 4.22083 1.2101.1331-.9264.5095-1.5691.9263-1.9512-3.2365-.359-6.50194-.8279-6.50194-6.3978 0-1.5922.44002-2.3912 1.36639-3.4102-.15053-.3763-.64267-1.92797.15054-3.93125 1.21007-.37634 3.99501 1.56325 3.99501 1.56325 1.1579-.32422 2.4027-.49213 3.636-.49213 1.2332 0 2.478.16791 3.636.49213 0 0 2.7849-1.94537 3.995-1.56325.7932 2.00907.301 3.55495.1505 3.93125.9264 1.0248 1.4938 1.8238 1.4938 3.4102 0 5.5872-3.4102 6.033-6.6468 6.3978.5327.4574.9843 1.3259.9843 2.6865 0 1.9511-.0174 4.3655-.0174 4.8403 0 .3763.2664.8337 1.0017.7005 5.7898-1.9222 9.7153-7.4167 9.7153-13.8376 0-8.03052-6.5135-14.1272-14.544-14.1272zm-8.5458 19.9691c-.07526.0579-.05789.1911.04053.3011.09264.0926.22581.1331.30107.0579.07527-.0579.0579-.1911-.04052-.3011-.09264-.0927-.22581-.1332-.30108-.0579zm-.6253-.469c-.04052.0753.01737.1679.13317.2258.09264.0579.20843.0405.24896-.0405.04053-.0753-.01737-.1679-.13316-.2258-.1158-.0348-.20844-.0174-.24897.0405zm1.87591 2.0612c-.09264.0753-.0579.249.07526.359.13317.1331.30107.1505.37634.0579.07527-.0753.04053-.249-.07527-.359-.12737-.1332-.30107-.1505-.37633-.0579zm-.66004-.8511c-.09264.0579-.09264.2084 0 .3416.09263.1332.24896.191.32423.1332.09263-.0753.09263-.2259 0-.359-.08106-.1332-.2316-.1911-.32423-.1158z" /></svg>
