<svg fill="#000" height="32" viewBox="0 0 32 32" width="32" xmlns="http://www.w3.org/2000/svg"><path d="m9.1523 14.8421c-1.98658 0-3.79252-.7649-5.1523-2.0078v13.0135c0 2.847 2.30525 5.1522 5.1523 5.1522 2.847 0 5.1522-2.3052 5.1522-5.1522v-13.0135c-1.3597 1.2429-3.1657 2.0078-5.1522 2.0078z"/><path d="m9.1523 11.3045c2.8455 0 5.1522-2.30669 5.1522-5.1522 0-2.84557-2.3067-5.1523-5.1522-5.1523-2.84557 0-5.1523 2.30673-5.1523 5.1523 0 2.84551 2.30673 5.1522 5.1523 5.1522z"/><path d="m22.8988 17.1579c1.9866 0 3.7925.7649 5.1523 2.0078v-13.0134c0-2.84705-2.3052-5.1523-5.1523-5.1523-2.847 0-5.1522 2.30525-5.1522 5.1523v13.0134c1.3597-1.2429 3.1657-2.0078 5.1522-2.0078z"/><path d="m22.8988 31c2.8455 0 5.1523-2.3067 5.1523-5.1522s-2.3068-5.1523-5.1523-5.1523-5.1522 2.3068-5.1522 5.1523 2.3067 5.1522 5.1522 5.1522z"/></svg>
