<svg fill="#000" height="32" viewBox="0 0 32 32" width="32" xmlns="http://www.w3.org/2000/svg"><path clip-rule="evenodd" d="m27.0526 27.3614c.4175-.0787.8415-.1169 1.2661-.1143h.0034c.6023.0058 1.1715.1547 1.6779.7529l-14.2578-25-13.7422 24.6963c1.86492-.9272 4.4028-1.8291 7.60339-1.2748.88971.1547 1.40181.2702 1.75431.3499.5965.1351.7414.1674 1.4919.1166 1.1977-.0774 3.6671-1.0046 4.9149-2.4965.754-.9007 1.2889 0 1.7977.8556.3319.5601.6524 1.1005 1.0151 1.1039.3194.0012.3821-.0831.6753-.4826l.1254-.1698c.4072-.545 1.9904-.2748 2.6543 1.6293 0 0 .0775-.8452.9923-.8637.5543-.0115.8019.3326 1.0038.612.13.1813.2395.3349.4026.3464.1791.0139.3764-.0196.6216-.0612z" fill-rule="evenodd"/></svg>
