<svg fill="#000" height="32" viewBox="0 0 32 32" width="32" xmlns="http://www.w3.org/2000/svg"><path d="m24.4004 2c3.0925.00021 5.5994 2.50712 5.5996 5.59961v16.80079c-.0002 3.0925-2.5071 5.5994-5.5996 5.5996h-16.80079c-3.09249-.0002-5.5994-2.5071-5.59961-5.5996v-16.80079c.00021-3.09249 2.50712-5.5994 5.59961-5.59961zm-3.832 18.8633c-2.9469.958-5.747.958-8.6944 0l-.5898 1.8418c1.6214.516 3.3155.8105 4.9365.8105 1.6212 0 3.3163-.2211 4.9375-.8105zm-1.7256-8.3731 6.5683 1.6758.4737-1.8555-6.5684-1.6767zm-12.63479-.2011.47461 1.8564 6.56738-1.6777-.4736-1.8565z" /></svg>
