<svg fill="#000" height="32" viewBox="0 0 32 32" width="32" xmlns="http://www.w3.org/2000/svg"><path d="m16 2c7.732 0 14 6.26801 14 14 0 7.732-6.268 14-14 14-7.73199 0-14-6.268-14-14 0-7.73199 6.26801-14 14-14zm-1.6025 17.21v1.2968h3.5087l-.0009-1.2968zm-7.11234-6.5293v6.5293h3.30374c2.1539 0 3.5185-1.1983 3.5185-3.2647 0-2.066-1.3645-3.2646-3.5185-3.2646zm11.11714-.001v6.5303h3.3038c2.1537-.0002 3.5175-1.1994 3.5175-3.2657-.0002-2.0657-1.3641-3.2646-3.5175-3.2646zm-7.8134 1.6474c1.1596 0 1.5595.1466 1.5595 1.6182 0 1.4715-.3991 1.6182-1.5586 1.6182h-1.47164v-3.2364zm11.1172 0c1.1592.0001 1.5585.1459 1.5585 1.6172 0 1.4715-.3992 1.6182-1.5585 1.6182h-1.4727v-3.2354z" /></svg>
