<svg fill="#000" height="32" viewBox="0 0 32 32" width="32" xmlns="http://www.w3.org/2000/svg"><path d="m30.7323 14.847c-.1354-3.7036-1.696-7.21181-4.3564-9.79203-2.6604-2.58023-6.2146-4.033-9.9206-4.05497h-.07c-2.4957-.00185-4.9488.6461-7.11815 1.88008-2.16928 1.23399-3.97991 3.0115-5.25373 5.15762-1.27382 2.1461-1.96694 4.587-2.01116 7.0822-.04422 2.4954.56198 4.9591 1.75897 7.1491l-1.27101 7.6056c-.00207.0156-.0008.0314.00375.0465.00453.0151.01223.029.02258.0409.01034.0119.02309.0214.0374.0279.0143.0066.02985.01.04559.0101h.02186l7.5226-1.6733c1.9436.9331 4.0721 1.4173 6.2282 1.4167h.411c1.8966-.0541 3.7637-.4833 5.4935-1.2628s3.2881-1.8939 4.5849-3.2788c1.2969-1.385 2.3067-3.013 2.971-4.7903s.97-3.6684.8997-5.5645zm-14.0205 12.3967c-.1137 0-.2274 0-.3396 0-1.9055.0024-3.7838-.4536-5.4761-1.3293l-.3848-.2012-5.10155 1.2055.94159-5.1614-.21863-.3702c-1.04424-1.7803-1.60671-3.802-1.63199-5.8659-.02527-2.0638.48749-4.0988 1.48781-5.90416 1.00032-1.80543 2.45368-3.31915 4.21697-4.39206 1.7632-1.07292 3.7755-1.66802 5.8388-1.72668h.3454c3.115.00923 6.1018 1.2418 8.3167 3.43217 2.2149 2.19036 3.4807 5.16323 3.5247 8.27793.0439 3.1148-1.1375 6.1221-3.2896 8.3741-2.1523 2.252-5.1031 3.5684-8.2166 3.6656z"/><path d="m11.3753 8.43372c-.1776.00347-.3527.04253-.5149.11489-.1623.07235-.3083.17653-.4296.30636-.3425.35127-1.30015 1.19663-1.35554 2.97203-.05538 1.7753 1.18504 3.5317 1.35844 3.778.1735.2463 2.3715 4.0813 5.9921 5.6364 2.1281.9169 3.061 1.0743 3.6658 1.0743.2493 0 .4373-.0262.634-.0379.6633-.0408 2.1603-.8075 2.4867-1.6412.3265-.8338.3484-1.5625.2623-1.7083-.0859-.1458-.322-.2508-.6777-.4373-.3556-.1866-2.1003-1.1194-2.4283-1.2506-.1216-.0566-.2525-.0907-.3863-.1005-.0871.0045-.1718.0302-.2467.075-.0749.0446-.1379.107-.1833.1814-.2914.363-.9605 1.1515-1.185 1.379-.049.0564-.1095.102-.1772.1337-.0678.0316-.1415.0486-.2164.0499-.1378-.0061-.2727-.0424-.3949-.1064-1.0569-.4488-2.0205-1.0915-2.8409-1.8948-.7665-.7556-1.4169-1.6206-1.9298-2.5668-.1982-.3674 0-.5568.1807-.7288.1808-.1721.3746-.4096.5612-.6152.1531-.1755.2807-.3718.379-.583.0509-.098.0766-.2071.0747-.3175-.0017-.1105-.0309-.2187-.0849-.3151-.086-.1836-.7288-1.98955-1.0305-2.71397-.2448-.61947-.5364-.63988-.7915-.65882-.2099-.01458-.4504-.02187-.6909-.02916h-.0306"/></svg>
