<svg width="32" height="32" viewBox="0 0 32 32" fill="#000" xmlns="http://www.w3.org/2000/svg">
<path d="M31.8901 6.44248C31.6603 6.04539 31.1481 5.91462 30.756 6.153L9.69623 18.9437C9.1596 17.941 8.85545 16.7954 8.85545 15.579C8.85545 11.6292 12.0612 8.42724 16.0156 8.42724C17.7137 8.42724 19.2725 9.01914 20.5 10.0054L16.0197 13.0772L27.6628 6.36279C27.9138 6.21839 27.9997 5.89759 27.8545 5.64762C27.7017 5.38334 27.356 5.30501 27.1036 5.47801L24.2526 7.43281C22.1515 5.31319 19.2378 4 16.0156 4C9.61304 4 4.42295 9.18397 4.42295 15.579C4.42295 17.6379 4.96165 19.571 5.90476 21.2465L0 24.8326L6.06227 21.5176C8.0869 24.8959 11.7863 27.1579 16.0156 27.1579C22.4182 27.1579 27.6083 21.974 27.6083 15.579C27.6083 15.2179 27.6083 15.2796 27.6083 14.1962C27.6083 13.113 28.0484 11.7272 29.6077 10.8929C29.7413 10.8214 29.7898 10.6538 29.7141 10.5223C29.6397 10.3943 29.476 10.35 29.3479 10.4243L15.5232 18.3967C17.0665 17.7415 18.2461 17.343 19.8099 17.0293C23.0673 16.3757 23.1502 17.9268 21.8922 19.6763C21.0499 20.8479 19.147 22.7293 16.017 22.7293C13.4645 22.7293 11.2251 21.3957 9.95673 19.3878L31.5744 7.56836C31.9773 7.34836 32.1199 6.83957 31.8901 6.44248Z" />
</svg>
