<svg fill="#000" height="32" viewBox="0 0 32 32" width="32" xmlns="http://www.w3.org/2000/svg"><path d="m3.00358 15.9886c0-2.1522.00765-4.3044-.00354-6.45619-.00452-.82431.34942-1.4238 1.06642-1.85002 3.58245-2.12625 7.16234-4.25612 10.73974-6.38959.6561-.391139 1.2929-.390645 1.9485.00296 3.6034 2.16373 7.2089 4.32362 10.8164 6.47947.6693.3995.9877.96897.9877 1.71812v13.04195c0 .7511-.3372 1.3285-.9953 1.7206-3.6542 2.1776-7.3105 4.3522-10.9688 6.5239-.5926.3501-1.2117.2543-1.7849-.0879-2.0313-1.2113-4.0614-2.4265-6.0902-3.6457-1.57429-.9442-3.1485-1.894-4.72979-2.8303-.67596-.4-.99125-.9724-.98977-1.7335.00609-2.1647.00732-4.3294.00354-6.4938zm22.02082-.034c0-1.8006.001-3.6015.0031-5.4024 0-.1377-.035-.2197-.1625-.2963-2.9819-1.77033-5.9611-3.54461-8.9376-5.32285-.1046-.06274-.1777-.07015-.2879-.00395-2.9815 1.79468-5.96508 3.58608-8.95067 5.3742-.04976.0245-.09087.0628-.11801.1102-.02714.0473-.03914.1015-.03437.1555.00304 3.6141.00304 7.2281 0 10.8422-.00576.0538.0051.108.03141.1556.02623.0477.06661.0865.11587.1116 2.98593 1.7885 5.96957 3.58 8.95067 5.3747.0411.0315.0918.0486.144.0486.0523 0 .103-.0171.144-.0486 2.9791-1.8085 5.9614-3.6137 8.9466-5.4156.052-.026.0947-.0666.1227-.1164s.0399-.1067.0342-.1632c-.0033-1.8016-.0038-3.603-.0015-5.4033z" /></svg>
