<svg fill="#000" height="32" viewBox="0 0 32 32" width="32" xmlns="http://www.w3.org/2000/svg"><path d="m16.0002 2c-9.31549 0-13.0002 5.60682-13.0002 13.8626 0 8.2557 3.68471 14.1374 13.0002 14.1374 9.3156 0 12.9998-5.8822 12.9998-14.1374 0-8.25535-3.6842-13.8626-12.9998-13.8626zm.0013 23.4757c-4.2489 0-6.44943-2.4556-7.11364-6.5886-.05003-.3116.19194-.5947.5111-.5947h13.13944c.3181 0 .5598.2814.5117.5926-.6461 4.1341-2.7985 6.5907-7.0482 6.5907zm-6.65774-11.6649c-.31443 0-.55468-.2753-.5124-.5839.58918-4.29819 2.79274-6.70251 7.17014-6.70251s6.5306 2.40518 7.1023 6.70461c.0411.3078-.1987.5818-.5127.5818z"/></svg>
