<svg fill="#000" height="32" viewBox="0 0 32 32" width="32" xmlns="http://www.w3.org/2000/svg" xmlns:xlink="http://www.w3.org/1999/xlink"><path d="m32 16.0858c0 .1622-.0023.3244-.0069.4866h-.0187-7.7635v-.3546h-7.4902c0-.0741.0024-.1483.0024-.2201 0-.0719 0-.1483-.0024-.2202h7.4902v-.3522h.0116 7.7636c.0093.2201.0139.4403.0139.6605zm-15.4114-1.5968 7.3304-.9015.044.3522 7.7403-.9524c-.074-.3801-.1621-.7555-.2618-1.124l-7.62.9385.0441.3523-7.365.9062c.0324.1436.0626.2873.088.4333zm-.3823-1.4183 7.0058-1.7497.0858.343 7.4344-1.85635c-.153-.35921-.3175-.71379-.4935-1.0591l-7.2169 1.80305.0858.3429-7.0637 1.766c.058.1367.1113.2734.1623.4125zm-.6211-1.3279 6.5492-2.47282.1251.33141 6.9293-2.61645c-.2246-.32909-.4611-.6489-.7113-.95944l-6.6236 2.50057.1253.33141-6.6281 2.50292c.0811.1251.1599.2526.2341.3824zm-.8598-1.2283 5.7845-3.01507.1621.31518 6.3965-3.33488c-.2945-.28507-.6003-.5562-.9156-.81808l-6.0116 3.13326.1623.31518-5.8818 3.06601c.102.1113.2039.2225.3013.3384zm-1.3952-1.32562 5.2376-3.33024.19.29895 5.7798-3.67555c-.3639-.23175-.7346-.44728-1.1169-.6489l-5.277 3.35574.19.29895-5.3882 3.42527c.1321.08806.2596.18076.3871.27578zm-1.2375-.77404 4.3893-3.59909.2248.27348 4.9433-4.05563c-.4196-.159904-.8505-.303589-1.2863-.428734l-4.3847 3.596754.2248.27348-4.5492 3.73115c.1483.0649.2943.13442.438.20859zm-1.6385-.63732 3.467-3.45075.248.25029 4.4055-4.377755c-.4774-.078795-.9617-.1367325-1.453-.1738126l-3.7567 3.7381276.248.25028-3.66167 3.64312c.16917.03476.33607.07416.50287.1205zm-1.91654-.28969 2.76474-3.3511.2735.22481 3.5991-4.36154c-.5469.0254924-1.0869.0787948-1.6176.15759l-2.8668 3.47393.2735.22479-2.99423 3.6292c.08343-.00231.16919-.00464.25261-.00464.1066 0 .21089 0 .31518.00464zm-1.65702.09966 2.12979-3.29548.29664.19235 2.57473-3.986097c-.5886.152954-1.1634.338354-1.7242.553877l-1.81229 2.8065.29664.19235-2.35921 3.65237c.19699-.04634.39628-.08574.5979-.1182zm-1.84008.51217 1.53187-2.87138.31054.16686 2.0278-3.79839c-.65122.3175-1.27694.6767-1.87484 1.07533l-1.16572 2.18307.31288.16688-1.80302 3.37891c.21322-.10893.43337-.20859.65816-.29898zm-1.32098.67439.65123-1.84937.33371.11819 1.26535-3.59213c-.64195.50986-1.24449 1.06606-1.80301 1.66629l-.54461 1.54577.33372.11819-.85284 2.41947c.19931-.15063.40324-.29199.61413-.42411zm-1.62456 1.32325.28736-1.34412.34531.07417.57939-2.70683c-.60952.77403-1.14949 1.606-1.61066 2.48434l.25722.05563-.52837 2.22481c.20625-.2758.43104-.54.66975-.788zm-1.193514 1.5713v-1.77983c-.431054 1.13793-.736964 2.55383-.901506 3.94203.201623-.7694.507532-1.4948.901506-2.1622zm-.8899195 6.5423c.1691785 1.1842.4658185 2.3268.8783315 3.4136v-1.314c-.380069-.6488-.679026-1.3534-.8783315-2.0996zm1.4692835 2.9779.4612 2.1506-.25725.0557c.46117.8806 1.00116 1.7104 1.61066 2.4844l-.57937-2.7069-.3453.0742-.29202-1.3605c-.21088-.2223-.4125-.454-.59792-.6998zm1.60603 1.5991.85747 2.4335-.33371.118.5446 1.5458c.55853.6003 1.16108 1.1566 1.80301 1.6663l-1.26535-3.5921-.33371.1182-.65353-1.8587c-.21089-.1342-.41716-.2757-.61645-.4264zm1.27927.8042 1.80765 3.3883-.31287.1668 1.16571 2.1831c.5979.3985 1.22363.7578 1.87485 1.0753l-2.02781-3.7984-.31287.1668-1.5365-2.8783c-.22479-.0904-.44496-.1924-.66049-.3013zm1.90265.6998 2.36154 3.6572-.29665.1922 1.81229 2.8066c.5608.2155 1.1356.4009 1.7242.5538l-2.57472-3.9861-.29664.1925-2.1321-3.3002c-.20162-.0324-.40324-.0719-.60023-.1182zm1.68715.2226 2.99423 3.6291-.2735.2248 2.8668 3.4741c.5307.0787 1.0706.1319 1.6176.1575l-3.5991-4.3638-.2735.2248-2.76474-3.3511c-.09966.0046-.20162.0046-.3036.0046-.08807 0-.17843 0-.26652-.0046zm1.9861-.1714 3.65933 3.6407-.248.2502 3.7567 3.7382c.4913-.037.9757-.095 1.4531-.1738l-4.4033-4.38-.2503.2525-3.4646-3.4484c-.1646.0441-.3338.0857-.50293.1206zm1.70563-.5447 4.5447 3.7289-.2248.2734 4.3846 3.5967c.4357-.1251.8667-.2689 1.2862-.4287l-4.9455-4.0557-.2248.2735-4.3847-3.5967c-.1437.0742-.2897.1436-.438.2086zm1.2886-.7092 5.3812 3.423-.19.299 5.277 3.3557c.3823-.2016.7555-.4196 1.1169-.649l-5.7798-3.6754-.19.2988-5.2306-3.3255c-.1275.095-.2549.1876-.3871.2757zm1.4832-1.2606 5.8747 3.0614-.162.3152 6.0114 3.1331c.3152-.2618.6211-.533.9155-.8181l-6.3962-3.3348-.1623.3152-5.7775-3.0105c-.0974.1159-.197.2294-.3013.3385zm.9293-1.1866 6.6188 2.5004-.1251.3315 6.6234 2.5005c.2479-.3104.4843-.6302.7115-.9593l-6.9295-2.6166-.1251.3315-6.5399-2.4704c-.0742.1297-.153.2572-.2341.3824zm.6929-1.2979 7.0521 1.7614-.0856.343 7.2166 1.803c.1785-.3453.3429-.7.496-1.0591l-7.4346-1.8564-.0858.343-6.9965-1.7474c-.0509.1391-.1066.2758-.1622.4125zm.4589-1.3997 7.3533.9038-.044.3523 7.6199.9386c.0998-.3709.1879-.7463.262-1.124l-7.7404-.9525-.0441.3522-7.3187-.9015c-.0254.146-.0556.2897-.088.4334z" /></svg>
