<svg fill="#000" height="32" viewBox="0 0 32 32" width="32" xmlns="http://www.w3.org/2000/svg" xmlns:xlink="http://www.w3.org/1999/xlink"><mask id="a" height="9" maskUnits="userSpaceOnUse" width="5" x="27" y="4"><path d="m27.2994 4.00099h4.7006v8.30821h-4.7006z" /></mask><mask id="b" height="9" maskUnits="userSpaceOnUse" width="5" x="27" y="20"><path d="m27.2994 20.616h4.7006v8.3082h-4.7006z" /></mask><g mask="url(#a)"><path d="m31.4467 4.00099h-7.2002c-.3059 0-.5539.24798-.5539.55388v7.20043c0 .3059.248.5539.5539.5539h7.2002c.3059 0 .5539-.248.5539-.5539v-7.20043c0-.3059-.248-.55388-.5539-.55388z" fill-opacity=".85"/></g><g mask="url(#b)"><path d="m31.4467 20.616h-7.2002c-.3059 0-.5539.2479-.5539.5538v7.2004c0 .3059.248.5539.5539.5539h7.2002c.3059 0 .5539-.248.5539-.5539v-7.2004c0-.3059-.248-.5538-.5539-.5538z" fill-opacity=".85"/></g><g><path d="m16.0487 12.3293h-7.16617c-.30448 0-.55123.2451-.55123.5473v7.1152c0 .3022.24675.5472.55123.5472h7.16617c.3044 0 .5512-.245.5512-.5472v-7.1152c0-.3022-.2468-.5473-.5512-.5473z"/><path d="m7.75411 4h-7.200243c-.305893 0-.553867.24798-.553867.55388v7.20042c0 .3059.247974.5538.553867.5538h7.200243c.30591 0 .55388-.2479.55388-.5538v-7.20042c0-.3059-.24797-.55388-.55388-.55388z"/><path d="m24.3672 4h-7.2003c-.3059 0-.5539.24798-.5539.55388v7.20042c0 .3059.248.5538.5539.5538h7.2003c.3058 0 .5538-.2479.5538-.5538v-7.20042c0-.3059-.248-.55388-.5538-.55388z"/><path d="m7.75411 20.616h-7.200243c-.305893 0-.553867.2479-.553867.5538v7.2004c0 .3059.247974.5539.553867.5539h7.200243c.30591 0 .55388-.248.55388-.5539v-7.2004c0-.3059-.24797-.5538-.55388-.5538z"/><path d="m24.3672 20.616h-7.2003c-.3059 0-.5539.2479-.5539.5538v7.2004c0 .3059.248.5539.5539.5539h7.2003c.3058 0 .5538-.248.5538-.5539v-7.2004c0-.3059-.248-.5538-.5538-.5538z"/></g></svg>
