<svg fill="#000" height="32" viewBox="0 0 32 32" width="32" xmlns="http://www.w3.org/2000/svg"><path d="m24.0733 6.87807c-.4225.23018-.8981.34729-1.3802.33975-.4821-.00751-.9537-.1394-1.3687-.38267-.4149-.24325-.7587-.58948-.9975-1.00454-.2389-.41507-.3644-.88465-.3644-1.36246l-.0008-2.21258-3.9409-2.25557-.0208.0121511-.0207-.0121511-3.9408 2.25557v2.21258c.0002.47788-.1252.94759-.364 1.36277-.2387.41517-.5826.76149-.9976 1.00478s-.8868.37515-1.3689.38259c-.4821.00743-.95784-.10983-1.38026-.34022l-1.98598-1.13666-3.94176 2.25556v4.51213s.99488.5697 1.98597 1.1357c.41212.2478.75199.5978.98616 1.0154.23416.4176.35456.8884.34931 1.3662-.00523.4777-.13592.9458-.37919 1.3583-.24328.4124-.59074.7551-1.00819.994l-1.93406 1.1057v4.5103l.00094.0008v.0056l3.94082 2.2547 1.93217-1.1058c.42198-.2413.90063-.3685 1.38786-.3685.48722 0 .96591.127 1.38791.3683.422.2415.7725.5886 1.0163 1.0068.2437.4181.3722.8924.3725 1.3753v2.2125l3.9408 2.2556.0207-.0121.0208.0121 3.9409-2.2556.0008-2.2125c.0001-.4829.1285-.9572.3722-1.3753.2436-.4182.5941-.7653 1.0159-1.0068.422-.2413.9007-.3684 1.3879-.3683.4872 0 .9657.127 1.3877.3686l1.9322 1.1057 3.9408-2.2547v-.0055l.0008-.0009v-4.5103l-1.933-1.1057c-.4177-.2388-.7656-.5813-1.009-.9939-.2435-.4124-.3742-.8808-.3794-1.3587-.0051-.4779.1155-.9488.35-1.3664.2346-.4176.5749-.7674.9873-1.0149l1.9841-1.1357v-4.51213l-3.9416-2.25556zm-.0217 11.49963-1.9332 1.1067v.0056h-.001v2.2126c.0002.483-.128.9574-.3716 1.3756-.2436.4184-.594.7657-1.0161 1.0072-.4219.2415-.9006.3687-1.3878.3687-.4873 0-.966-.1272-1.388-.3687l-1.9331-1.1058-.0208.0112-.0207-.0112-1.9332 1.1058c-.4219.2415-.9006.3687-1.3879.3687s-.966-.1272-1.388-.3687c-.4219-.2414-.7723-.5888-1.0159-1.0072-.2436-.4182-.37182-.8926-.37172-1.3756v-2.2182l-1.93313-1.1067c-.4166-.2382-.76355-.5797-1.00676-.9911-.24323-.4112-.37437-.8781-.38055-1.3548-.0062-.4767.11278-.9467.34525-1.3641.23246-.4173.57042-.7676.9807-1.0163l1.99449-1.1423v-2.2117c-.00006-.4829.12812-.95735.37172-1.37561.2436-.41827.594-.7656 1.016-1.00709s.9007-.36863 1.3879-.36865c.4873 0 .966.12713 1.3879.36861l1.9332 1.10578.0207-.01124.0208.01124 1.9331-1.10578c.422-.24152.9007-.36869 1.388-.3687.4873 0 .966.12712 1.388.36863.4219.24149.7723.58885 1.0159 1.00713s.3718.89277.3716 1.37568v2.2117l1.9946 1.1423c.4105.2486.7485.5987.9812 1.0161.2327.4172.3518.8873.3457 1.3641-.0061.4767-.1373.9437-.3804 1.355-.2432.4112-.5903.7529-1.0069.9911z" /></svg>
