<svg fill="#000" height="32" viewBox="0 0 32 32" width="32" xmlns="http://www.w3.org/2000/svg"><path d="m23.0112 3.88567c-2.1519-1.24269-4.4815-1.88567-7.0112-1.88567s-4.8588.62109-7.0112 1.88567c-2.15193 1.26458-3.83855 2.95069-5.10313 5.10313-1.26458 2.1519-1.88567 4.4815-1.88567 7.0112s.62109 4.8588 1.88567 7.0112c1.26458 2.1519 2.95069 3.8385 5.10313 5.1031 2.1519 1.2646 4.4815 1.8857 7.0112 1.8857s4.8588-.6211 7.0112-1.8857c2.1519-1.2646 3.8385-2.9507 5.1031-5.1031s1.8857-4.4815 1.8857-7.0112-.6211-4.8588-1.8857-7.0112c-1.2646-2.15193-2.9507-3.83855-5.1031-5.10313zm-6.1457 17.17313c-1.5752 0-2.8398-.4439-3.8162-1.3531-.6654-.6211-1.0869-1.3756-1.3089-2.2629h15.0875c-.1553 1.2869-.5326 2.4848-1.1094 3.6165h-8.8749.0224zm-5.1032-6.4568c.1996-.8654.6435-1.6194 1.287-2.241.954-.9097 2.241-1.3755 3.8162-1.3755h8.9192c.5768 1.1317.9317 2.3296 1.065 3.6165zm-5.21408-4.1709c.97643-1.68616 2.28531-3.01743 3.94948-4.01575 1.6643-.99833 3.5056-1.48655 5.5023-1.48655s3.8385.48822 5.5023 1.48655c.843.51011 1.6194 1.1093 2.2853 1.79709h-7.0555c-1.5976 0-3.0174.33294-4.2601.99832-1.2427.66539-2.2186 1.57514-2.9064 2.75114-.48822.8212-.79876 1.7085-.93164 2.6625h-3.46131c.17768-1.4865.6211-2.8845 1.37557-4.1709zm14.95408 15.1536c-1.6643.9983-3.5056 1.4865-5.5023 1.4865s-3.8385-.4882-5.5023-1.4865c-1.66417-.9984-2.99545-2.3296-3.94948-4.0158-.73207-1.2645-1.19789-2.6401-1.37557-4.1048h3.46131c.13288.9541.44393 1.8414.93164 2.6626.6878 1.1536 1.6642 2.0857 2.9064 2.7511 1.2427.6654 2.6625.9983 4.2601.9983h6.9888c-.6654.6654-1.398 1.2427-2.2186 1.7304v-.0224z"/></svg>
