<svg fill="#000" height="32" viewBox="0 0 32 32" width="32" xmlns="http://www.w3.org/2000/svg"><path d="m26.1487 26.6078.0532.2032.0263.099c.0427.1619.1995.2841.3667.2849.0098.0007.0323 0 .048 0h.105c.6045.0045 1.4865-.003 2.0925 0h.4185.2085l.0878-.0037c.4402-.0308.8422-.3375.9907-.7544.0428-.1132.171-.4694.2168-.5909.234-.6179.2985-1.2965.1777-1.9458-.0922-.4919-.5955-1.8574-.7552-2.3665-.0848-.2332-.1703-.5474-.279-.7611-.1148-.2385-.2573-.45-.4305-.6502-.2243-.2609-1.1535-1.3759-1.3493-1.6046l-.1357-.162c-.2798-.3134-.1605-.7528-.2295-1.1308-.2325-2.1603-2.1285-3.9404-4.2908-4.0356-.4552-.0173-1.188-.0053-1.6605-.009-.315.0105-.6337-.054-.9127-.204-.2468-.1185-.4958-.3847-.6908-.5751l-1.197-1.1735c-.1687-.1628-.429-.4245-.5962-.5819-.4913-.4604-1.0613-.83611-1.6778-1.10456-.2753-.12222-1.638-.65686-1.9365-.78209-.2828-.11547-.5445-.28419-.7673-.4934-.2055-.18896-.3885-.45815-.5542-.67786-.1215-.15972-.3713-.50165-.4995-.66586-.4913-.62912-1.1985-1.06778-1.9665-1.2695-.2933-.07873-1.79326-.55563-2.08651-.61187-.85352-.16497-1.77077.18146-2.30702.86832-.20175.2467-.33975.54739-.429.85183-.045.18296-.08025.40342-.10425.59313-.09.64637-.441 1.24925-.95775 1.64591l-.09225.06749c-.009.00675-.01425.0105-.01725.0135l-.0135.0105c-.1605.12222-.18975.37717-.0585.53239.00525.0075.021.02549.03075.03749l.2685.32168-.0135-.01424c.0855.08394.111.21974.063.32914-.04575.093-.135.2722-.1815.3667-.108.2175-.32625.6561-.43425.8728-.24976.4799.01125 1.1256.528 1.2883l.459.1537c.13125.0397.24525.135.3105.2564l.1125.2242.05475.1095c.12225.2632.40575.4192.6915.3989.09.0015 1.65375-.0007 2.08877 0 .05625 0 .102.0458.102.102 0 .0488-.0345.0908-.08175.1005l-.75002.1492c-.10725.0218-.18525.1162-.18525.2257v.1905c0 .5976-.25725 1.1667-.70575 1.5604l-2.53275 2.2233c-1.19701 1.0506-2.09551 2.4063-2.59801 3.9202l-1.116 3.3503c-.1065.321-.0615.6794.14175.9493.18975.2505.477.3945.792.3945h3.19876c.2115 0 .3825-.1718.3825-.384v-.3599c0-.102-.0405-.1994-.11175-.2714l-.1605-.1605c-.102-.1027-.14925-.2534-.108-.3929.0495-.165.19875-.2745.36675-.2745h.855c.2115 0 .3825-.1717.3825-.3839v-.6141c0-.4589.21525-.8916.58125-1.1668l.07275-.0547c1.09127-.8211 1.75952-2.1078 1.74527-3.4771-.0075-.6793.294-1.3122.82346-1.7328l.6578-.5227c.0622-.0495.096-.1275.0855-.207-.0368-.2916-.1028-.5796-.198-.857-.069-.2025-.2108-.6224-.2783-.8226-.41771-1.1518-.28946-2.4963.3548-3.5363.4072-.6651 1.0147-1.1997 1.7115-1.5042.0495-.0217.108 0 .1327.0495.024.048.0068.1057-.039.1342-1.5562.9688-2.334 2.9642-1.7002 4.7038.0645.1995.2077.6366.2692.8256.2858.8668.3233 1.8139.105 2.6995l-1.21421 4.4758-.03825.1395c-.1695.5504-.09375 1.157.18676 1.6571.0112.0278.0705.138.081.162.1282.2347.1035.5241.1042.7776v.5789c-.0037.1289-.0037.2894.096.3884.0855.1005.216.1395.345.1305h2.3085 1.1543c.0345.0015.1597 0 .1927-.0023.2063-.0195.3615-.2174.342-.4229v-.2894c.0015-.0645-.0067-.1283-.0337-.1868-.0248-.0607-.0788-.1162-.126-.1612l-.2055-.2069c-.1823-.1777-.2018-.4934-.0495-.6929.051-.0742.3607-.5054.4192-.5894.2993-.4364.8738-1.214 1.1618-1.6466.6525-.9966.8603-2.2646.5775-3.4201-.0645-.3209-.2565-.7551-.3623-1.067-.135-.3832-.4785-1.2673-.5865-1.6549-.1702-.5797-.1687-1.1885-.1297-1.7847.0187-.3539.0397-.7086.072-1.0625.0052-.054.0502-.096.105-.096.054 0 .0997.0413.105.0952.0502.5422.0712 1.0963.099 1.637.0367.5609.1665 1.0887.3795 1.6114.1417.3667.4852 1.2695.6187 1.6227.1088.2879.1898.5878.2416.8923.039.2287.1927.4236.4065.5121.3195.1327.6555.249 1.0072.3479.3623.102.7425-.0697.906-.4101.0278-.0578.057-.1155.087-.1725.234-.4551.5483-.8616.8618-1.2612.2865-.3705.5842-.7319.8932-1.0858.0353-.0405.096-.0472.1395-.0165.0443.0315.0578.0922.03.1387-.3555.5946-.7792 1.2388-1.1625 1.8057-.456.7063-.7762 1.5026-.9135 2.3335-.1057.6643-.3015 1.9121-.408 2.5885-.0435.2504-.0652.5863-.2017.8068-.1193.2354-.396.4237-.5918.5879l-.1447.1184-.018.015-.0113.0105c-.108.093-.15.2475-.1072.384.0405.1439.099.3846.1402.5181.0503.1387.1913.2347.3398.2317l.747-.0022c.618-.0023 1.2487.003 1.8675.0037.0277 0 .1117.0008.1395 0 .273-.0015.5452-.0892.7635-.2549.2775-.2003.4117-.4814.5197-.8091.0825-.2257.555-1.5035.648-1.7569.084-.2355.1845-.4897.2933-.7139.3397-.7033.8175-1.3407 1.413-1.8483.7215-.5924 1.2555-1.3588 1.617-2.2338.021-.051.0757-.078.1282-.063s.0863.0667.078.1207c-.1192.7348-.4732 1.4202-.96 1.9818-.1942.2242-.3075.5077-.3075.8046v.2482c-.0022.1193-.0015.261.0203.3794.0502.2977.21.5714.4365.7694l.1537.1417.6165.5676.3083.2842c.0847.072.1522.168.1807.276.0653.2219-.0367.4686-.2265.5961-.081.0667-.2445.198-.3255.264-.0367.0337-.1057.0809-.1387.1169-.0938.0953-.129.2407-.0953.3697l.0533.2032z" fill="#000"/></svg>
