<svg fill="#000" height="32" viewBox="0 0 32 32" width="32" xmlns="http://www.w3.org/2000/svg"><path d="m26.6066 5.3934c5.8579 5.8579 5.8579 15.3553 0 21.2132s-15.3553 5.8579-21.2132 0c-5.857866-5.8579-5.857866-15.3553 0-21.2132 5.8579-5.857866 15.3553-5.857866 21.2132 0zm-1.3258 1.32582c-4.3934-4.39339-11.2197-4.69019-15.247-.66291-4.02729 4.02729-3.7305 10.85359.6629 15.24699s11.2197 4.6902 15.247.6629 3.7305-10.8536-.6629-15.24698z"/><path d="m11.0585 21.6486c-.1212-.1134-.2434-.2269-.3618-.3453s-.2319-.2406-.3453-.3618l6.0153-6.0153c.1086.1246.2213.2476.3404.3667s.2421.2318.3667.3404zm4.2026-8.4453c.1395.3123.3047.6194.4972.9171l-6.06495 6.0649c-.21425-.2633-.4193-.5301-.61112-.8031zm-2.6433 9.7145c-.273-.1919-.5398-.3969-.8031-.6112l6.0649-6.0649c.2977.1925.6048.3577.9171.4972zm2.1054-12.005c.0117.4098.0703.8258.174 1.2402l-6.37154 6.3716c-.18012-.3006-.34643-.6056-.50064-.9136zm-.3342 13.0622c-.308-.1542-.613-.3205-.9136-.5007l6.3716-6.3715c.4144.1037.8304.1623 1.2402.174zm3.3781-17.52025c-.66.20603-1.2644.55727-1.7671 1.05997-.5025.50249-.8532 1.10676-1.0593 1.76638l-7.35624 7.3563c-.13972-.3453-.26356-.6931-.37151-1.0427l12.35985-12.35991c.3496.10795.6975.23179 1.0427.37151zm10.6266 4.92975c.1397.3452.2636.6931.3715 1.0427l-12.3599 12.3598c-.3496-.1079-.6974-.2317-1.0427-.3715l7.3563-7.3562c.6596-.2061 1.2639-.5568 1.7664-1.0593.5027-.5027.8539-1.1071 1.0599-1.7671zm-21.47146 3.0867c-.0856-.4079-.14972-.8157-.19197-1.2223l10.49683-10.49679c.4066.04227.8144.10635 1.2222.19196zm22.13366-.9205c.0856.4078.1497.8156.192 1.2222l-10.4968 10.4968c-.4066-.0422-.8144-.1063-1.2223-.1919zm-22.38709-1.6545c.00855-.5255.05446-1.0445.1388-1.5531l7.51369-7.51365c.5085-.0843 1.0276-.13029 1.553-.1388zm22.64059 4.2295c-.0086.5254-.0545 1.0445-.1388 1.553l-7.5137 7.5137c-.5086.0843-1.0276.1302-1.5531.1388zm-21.96939-7.72917c.44179-1.12736 1.10197-2.16263 1.98667-3.04733.88492-.88491 1.92032-1.54556 3.04802-1.98735zm21.29819 11.22877c-.4418 1.1277-1.1025 2.1631-1.9874 3.048-.8847.8847-1.92 1.5449-3.0473 1.9867zm-7.9992-13.21405c-.4144-.10374-.8305-.16228-1.2402-.17402l2.1904-2.19037c.308.1542.613.32052.9136.50063zm6.8135 3.08599c.1801.30056.3464.60556.5006.91356l-2.1903 2.1904c-.0118-.4097-.0703-.8258-.174-1.2402zm-4.8462-2.2249c-.2976-.19248-.6048-.35775-.917-.49718l1.6711-1.6711c.2729.19182.5398.39689.8031.61113zm3.6785.56417c.2143.26334.4193.53014.6111.80309l-1.6711 1.6711c-.1394-.31219-.3047-.61944-.4971-.91704zm-.6581-.75614-1.5074 1.50744c-.1086-.1246-.2221-.24692-.3411-.36598-.1191-.11907-.2414-.23256-.366-.34113l1.5074-1.50743c.1213.11332.2427.22751.3612.34595.1184.11844.2326.2399.3459.36115z"/></svg>
