<svg fill="#000" height="32" viewBox="0 0 32 32" width="32" xmlns="http://www.w3.org/2000/svg"><g><path d="m11.7344 24.6656c1.7948 0 3.2498-1.455 3.2498-3.2499 0-1.7948-1.455-3.2498-3.2498-3.2498-1.79489 0-3.2499 1.455-3.2499 3.2498 0 1.7949 1.45501 3.2499 3.2499 3.2499z"/><path d="m20.2284 24.6656c1.7949 0 3.25-1.455 3.25-3.2499 0-1.7948-1.4551-3.2498-3.25-3.2498-1.7947 0-3.2498 1.455-3.2498 3.2498 0 1.7949 1.4551 3.2499 3.2498 3.2499z"/><path d="m15.9759 8c-8.82406 0-15.97820922 7.2904-15.97589944 16.2809h4.08136944c0-6.7377 5.28324-12.2003 11.89453-12.2003 6.6114 0 11.8947 5.4626 11.8947 12.2003h4.0813c.0015-8.9905-7.1526-16.2809-15.976-16.2809z"/></g></svg>
