<svg fill="#000" height="32" viewBox="0 0 32 32" width="32" xmlns="http://www.w3.org/2000/svg"><g><path d="m20.7484 20.1918 6.0169 6.0201-2.8232 2.8248-6.0169-6.0201c-.5159-.5162-1.1959-.7977-1.9275-.7977s-1.4116.2815-1.9275.7977l-6.01685 6.0201-2.8232-2.8248 6.01685-6.0201z"/><path d="m21.7519 18.4557 8.2163 2.2007 1.0318-3.8617-8.2164-2.2007c-.7034-.1877-1.2896-.6381-1.6554-1.2716-.3658-.6288-.4596-1.3654-.272-2.0693l2.1994-8.2208-3.8596-1.0323-2.1994 8.2208 4.7506 8.2302z"/><path d="m10.2481 18.4557-8.21637 2.2007-1.03173-3.8617 8.21636-2.2007c.70345-.1877 1.28964-.6381 1.65544-1.2716.3658-.6288.4596-1.3654.272-2.0693l-2.19946-8.2208 3.85966-1.0323 2.1994 8.2208-4.7506 8.2302z"/></g></svg>
