<svg fill="#000" height="32" viewBox="0 0 32 32" width="32" xmlns="http://www.w3.org/2000/svg"><path d="m16.6389 22.4483 1.7997-.1577.6436 7.3622c.8194-.184 1.6205-.4415 2.3936-.7694v-6.5304h2.2232v5.3344c.9289-.6141 1.7817-1.336 2.5407-2.1507l.2859-3.2641 1.9055.1662c1.0859-2.0969 1.624-4.4343 1.5644-6.7948-.0596-2.3606-.715-4.6678-1.9053-6.70723l-.0709.81071-2.2231-.19471.2858-3.26201c-.7201-.74783-1.5207-1.41373-2.3872-1.98556v5.36078h-2.2232v-6.55571c-.9483-.40346-1.9386-.69989-2.9526-.88377l.6426 7.34425-1.7997.15768-.6754-7.71149c-.2265-.01059-.4552-.01694-.6839-.01694-.8917 0-1.7814.0847-2.6572.25296l1.2704 7.22886-1.3699.24133-1.2597-7.13891c-1.1743.35065-2.29698.85493-3.33902 1.49975l1.41852 5.292-1.0755.28897-1.31906-4.9237c-1.0178.75392-1.92906 1.64184-2.70909 2.63965l.68706 1.88715-.78446.28573-.49438-1.3579c-.79086 1.17655-1.39773 2.46671-1.7997 3.82611l.22231-.0804 2.85834 7.8437-.78445.2858-2.55556-7.0193c-.5853 2.73-.3413 5.5726.70068 8.163s2.8344 4.8104 5.14727 6.3752l-1.32755-4.9533 1.07557-.289 1.62399 6.0604c1.11263.5807 2.29893 1.008 3.52633 1.2701l-1.2524-7.1357 1.371-.2413 1.3434 7.6205c.4944.0522.9913.0784 1.4884.0783.433 0 .8628-.0201 1.2863-.0593zm9.8972-10.6899 2.2179.1938-.7273 8.3168-2.2232-.1937zm-5.0571.0815h2.2231v8.3476h-2.2231zm-3.0372-.0634.7273 8.3169-1.7998.1576-.7283-8.3169zm-9.44212 8.4132-2.16066-8.064 1.07559-.2879 2.16069 8.0587zm4.25582.055-1.4504-8.2206 1.371-.2413 1.4492 8.2195z" /></svg>
