<svg fill="#000" height="32" viewBox="0 0 32 32" width="32" xmlns="http://www.w3.org/2000/svg"><path clip-rule="evenodd" d="m6.66667 2c-2.57733 0-4.66667 2.08934-4.66667 4.66667v18.66663c0 2.5774 2.08934 4.6667 4.66667 4.6667h18.66663c2.5774 0 4.6667-2.0893 4.6667-4.6667v-18.66663c0-2.57733-2.0893-4.66667-4.6667-4.66667zm9.94043 11.1997c-.3828.2944-.6071.75-.6071 1.2329v10.7063c0 .5369.4353.9722.9722.9722h8.1667c.5369 0 .9722-.4353.9722-.9722v-18.46024c0-.32264-.3702-.50495-.6259-.30823z" fill-rule="evenodd"/></svg>
