<svg fill="#000" height="32" viewBox="0 0 32 32" width="32" xmlns="http://www.w3.org/2000/svg"><path d="m24.6133 15.7617.001.001-.0127 3.2168-1.9034-1.8057h-3.9502l-.0761.4971h3.831l1.8448 1.751-1.5772.3916v.5117l2.3223-.5781.0146-3.8692h3.8457l.001-.0009 1.8574 6.9619h-8.2939l-4.3838 3.3408.2432.2715.2626-.0342 3.712-2.8311v3.9385l.4931.1465v-4.3369h7.96l-1.8262 6.167-6.1338-1.8291-.4931-.1465-.7032-.21-3.0088-.8984-.2636.0351-.1016.3731 3.7158 1.1074-4.3994 2.6309h-3.3027l-4.39943-2.6309 3.71383-1.1055-.1015-.375.2431-.2724-4.38375-3.3408h-8.29492l1.8584-6.961h3.84375l.00097-.0009.01563 3.871 2.32422.5772v-.002l3.6416.9043.46-.1777-.045-.1211v-.0029l-.8173-2.126h-2.2071l-1.0322 1.0137-1.57715-.3916 1.84473-1.751h3.82912l-.0752-.4971h-3.85451l-.16894.0684-1.83008 1.7373-.0127-3.2168 5.10743-3.5156.7607 4.9287.0752.4961 1.1983 7.7715-.9043 1.0087.5273 1.9327h3.8194l.5273-1.9327-.9043-1.0078 1.1992-7.7724.0752-.4971h.002l.7607-4.9287zm-15.5801 11.9102.49317-.1475v-3.9385l3.71383 2.8311-3.71383 1.1084-.49317.1465-6.13183 1.8291-1.82715-6.167h7.95898zm8.7959-1.0928c-.0046.0165-.3574 1.3105-.3574 1.3105h-3.0625l-.3574-1.3105.7236-.8076h2.3301zm1.2471-14.7646-2.0772 13.457h-2.1211l-2.0771-13.4619.3828-3.94339h5.5107zm-.3643 9.1113v.0029l-.0459.1211.46.1777 3.6416-.9043v-.5097l-1.0313-1.0117h-2.208zm-6.1777-.2656-2.86135-.71.66695-.6533h1.67zm9.667-.71h.0019l-2.8623.71.5244-1.3653h1.669zm-10.0274-8.1719-5.23532 3.6026h-4.02246l-1.91602-6.06547 1.86328-7.31445zm18.7032-2.46287-1.9151 6.06547h-4.0224l-5.2354-3.6026 9.3105-9.7783zm-18.1788-1.56445v.00097l-.3388 3.50295-8.19338-8.60549zm6.8213 3.50392-.3398-3.50099c.0165-.00976 8.5342-5.10352 8.5342-5.10352z" /></svg>
