<svg fill="#000" height="32" viewBox="0 0 32 32" width="32" xmlns="http://www.w3.org/2000/svg"><g><path d="m7.76312 11.8177-4.24611-2.16201c-.33317.65211-.61317 1.33621-.84001 2.03441l4.53321 1.4674c.14886-.4608.33316-.9109.55291-1.3398z"/><path d="m11.3675 8.0076 2.3499 4.0511c.3438-.1984.7124-.3508 1.0917-.4536l-1.2157-4.52257c.3083-.08151.6238-.1524.9428-.20202l-.7479-4.70683c-.723.11341-1.4425.28708-2.1372.51392l1.4532 4.45873c-.4643.15241-.9145.34026-1.3469.56l-2.13368-4.17164c-.64861.33316-1.2795.71949-1.86786 1.1519l2.80714 3.84557c.2587-.18785.5281-.36152.8045-.52456z"/><path d="m23.9889 11.364-4.0512 2.3535c.1985.3438.3545.7124.4573 1.0916l4.5225-1.2192c.0851.3083.1524.6238.2021.9392l4.7068-.7478c-.1134-.7231-.2871-1.4426-.5174-2.1373l-4.4553 1.4603c-.1524-.4643-.3402-.9144-.56-1.3468l4.1717-2.1408c-.3332-.64861-.7195-1.27949-1.1519-1.86784l-3.8456 2.81064c.1843.2587.358.5281.521.8045z"/><path d="m22.3374 3.51342c-.6522-.33317-1.3362-.61317-2.0345-.84l-1.4638 4.53316c.4572.14886.9074.33317 1.3398.55291z"/><path d="m20.6431 7.92607-2.3782 4.12913c.3438.1985.6628.443.9428.723l6.6704-6.69517c-.5174-.51747-1.081-.99595-1.6694-1.42481l-2.7504 3.79595c-.2622-.1914-.5316-.36861-.8152-.5281z"/><path d="m7.9262 11.3499 4.1256 2.3818c.1985-.3438.443-.6628.723-.9464l-6.68811-6.6739c-.51747.51747-.99596 1.08102-1.42482 1.66937l3.79243 2.75393c-.18785.2623-.36506.5352-.5281.8152z"/><path d="m17.4426 6.79899.7195-4.63241c-.7124-.10987-1.439-.16658-2.1656-.16658h-.0107v9.4491h.0107c.3969 0 .7939.0496 1.1731.1524l1.2228-4.60403c-.3119-.08507-.6273-.14886-.9498-.19848z"/><path d="m11.6016 14.8268-4.60409-1.2263c-.08152.3119-.14886.6309-.19848.9499l-4.63245-.7231c-.10987.7124-.16658 1.4461-.16658 2.1727h9.4492c0-.4005.0532-.7939.1524-1.1732z"/><path d="m24.2373 20.1823 4.2461 2.162c.3332-.6521.6132-1.3362.84-2.0344l-4.5332-1.4674c-.1488.4608-.3331.9109-.5529 1.3398z"/><path d="m20.6293 23.9889-2.3499-4.0512c-.3438.1985-.7124.3509-1.0917.4537l1.2158 4.5225c-.3084.0815-.6239.1524-.9428.202l.7478 4.7069c.7231-.1134 1.4426-.2871 2.1372-.5139l-1.4531-4.4588c.4643-.1524.9144-.3402 1.3468-.56l2.1372 4.1717c.6487-.3332 1.2796-.7195 1.8679-1.1519l-2.8071-3.8491c-.2587.1949-.5281.3686-.8081.5281z"/><path d="m8.01159 20.636 4.05121-2.357c-.1985-.3438-.3545-.7124-.4573-1.0917l-4.52253 1.2193c-.08506-.3084-.1524-.6238-.20202-.9393l-4.70688.7479c.11342.723.28709 1.4425.51748 2.1372l4.45522-1.4567c.15241.4608.34026.9144.56001 1.3468l-4.17168 2.1408c.33316.6486.7195 1.2795 1.15191 1.8678l3.8456-2.8106c-.18431-.2587-.35798-.5281-.52102-.8045z"/><path d="m9.6626 28.4866c.6522.3331 1.3362.6131 2.0344.84l1.4639-4.5332c-.4573-.1489-.9074-.3332-1.3398-.5529z"/><path d="m11.3536 24.0739 2.3783-4.1291c-.3438-.1985-.6628-.443-.9428-.723l-6.67045 6.6952c.51748.5174 1.08102.9959 1.66938 1.4248l2.75037-3.796c.2623.1879.5352.3651.8152.5281z"/><path d="m24.0706 20.6501-4.1256-2.3817c-.1985.3438-.4431.6627-.7231.9463l6.6917 6.6739c.5175-.5175.996-1.081 1.4248-1.6694l-3.7924-2.7539c.1879-.2658.3651-.5352.5246-.8152z"/><path d="m14.8268 20.3985-1.2228 4.604c.3119.0816.6309.1489.9499.1985l-.7195 4.6324c.7124.1099 1.439.1666 2.1656.1666h.0106v-9.4491h-.0106c-.397 0-.794-.0532-1.1732-.1524z"/><path d="m20.5508 16c0 .4005-.0496.7939-.1524 1.1732l4.6041 1.2263c.0815-.3119.1489-.6309.1985-.9499l4.6325.7231c.1098-.7124.1665-1.4461.1665-2.1727z"/></g></svg>
