<svg fill="#000" height="32" viewBox="0 0 32 32" width="32" xmlns="http://www.w3.org/2000/svg" xmlns:xlink="http://www.w3.org/1999/xlink"><path d="m3.32001 18.5872 1.00774-5.2029h.57477l.26783-1.3843h-2.18775l-1.54602 7.9828h2.18775l.27046-1.3956z"/><path d="m12.779 12.2299-.351 1.8116c.2976.4776.3566 1.1862.193 2.031-.1681.8687-.4754 1.5388-.9675 1.968l-.3318 1.7131c.386-.1302.7377-.3133 1.0586-.5435.8166-.592 1.4083-1.4924 1.7254-2.5347l.2381-1.2295c.1302-1.5433-.4359-2.7347-1.5648-3.216z"/><path d="m14.3438 15.4456-.2381 1.2295c.0598-.1963.111-.3975.1504-.6029.0415-.2144.0705-.4235.0877-.6266z"/><path d="m8.37119 13.3843c.63909 0 1.08333.2412 1.34401.6595l.351-1.8117c-.35476-.1513-.76477-.2325-1.2267-.2325h-.91633l-.2682 1.3843h.71584z"/><path d="m7.31855 18.5871h-.67144l-.27046 1.3957h.78279c.53151 0 1.01225-.0793 1.44898-.2269l.33177-1.7132c-.40588.3541-.93777.5444-1.62201.5444z"/><path d="m15.1028 13.0547-1.1375 5.8733c.8002-.7082 1.3433-1.7358 1.5663-2.8875.2352-1.2137.0734-2.2579-.4288-2.9858z"/><path d="m10.3704 12.0158-.2765 1.4266c.9905.2409 1.3162 1.2564 1.0488 2.6358-.2671 1.3794-.8844 2.2597-2.03696 2.4655l-.27572 1.4232c.80723-.0694 1.48918-.3333 2.07188-.7513.1072-.0778.2103-.1619.3096-.2499l1.1375-5.8732c-.4259-.6173-1.0965-1.0061-1.9794-1.0767z"/><path d="m1.54602 11.9999-1.54602 7.9829h1.17438l1.54602-7.9829z"/><path d="m5.84187 18.5872h-1.24584l1.00773-5.2029h1.29061c.17793 0 .34005.0193.48825.0551l.2761-1.4266c-.09629-.0075-.19447-.0128-.29604-.0128h-1.88945-.04024l-1.54603 7.9828h1.79617c.14934 0 .29416-.0068.43559-.0193l.27573-1.4232c-.17191.0306-.35585.0469-.5522.0469z"/><path d="m19.6823 18.5872 1.0077-5.2029h.5748l.2683-1.3843h-2.1878l-1.5464 7.9828h2.1877l.2705-1.3956z"/><path d="m29.1412 12.2299-.3511 1.8116c.2976.4776.3566 1.1862.193 2.031-.1681.8687-.4754 1.5388-.9674 1.968l-.3317 1.7131c.3859-.1302.7375-.3133 1.0584-.5435.8167-.592 1.4083-1.4924 1.7254-2.5347l.2382-1.2295c.1301-1.5433-.436-2.7347-1.5648-3.216z"/><path d="m30.706 15.4456-.2382 1.2295c.0599-.1963.111-.3975.1505-.6029.0414-.2144.0703-.4235.0877-.6266z"/><path d="m24.7332 13.3843c.6392 0 1.0834.2412 1.3441.6595l.3509-1.8117c-.3546-.1513-.7647-.2325-1.2266-.2325h-.9164l-.2681 1.3843h.7157z"/><path d="m23.6811 18.5871h-.6714l-.2704 1.3957h.7827c.5316 0 1.0123-.0793 1.449-.2269l.3318-1.7132c-.406.3541-.9378.5444-1.6221.5444z"/><path d="m31.4655 13.0547-1.1376 5.8733c.8001-.7082 1.3433-1.7358 1.5663-2.8875.2351-1.2137.0733-2.2579-.4287-2.9858z"/><path d="m26.7326 12.0158-.2765 1.4266c.9905.2409 1.3163 1.2564 1.0488 2.6358-.2671 1.3794-.8844 2.2597-2.0369 2.4655l-.2757 1.4232c.8072-.0694 1.4892-.3333 2.0718-.7513.1073-.0778.2103-.1619.3096-.2499l1.1376-5.8732c-.4258-.6173-1.0966-1.0061-1.9794-1.0767z"/><path d="m17.9087 12-1.5464 7.9828h1.1744l1.5461-7.9828z"/><path d="m22.2044 18.5872h-1.246l1.0078-5.2029h1.2906c.178 0 .34.0193.4883.0551l.2765-1.4266c-.0964-.0075-.1946-.0128-.2961-.0128h-1.8895l-1.5459 7.9828 1.5455-7.9828h-.0402l-1.5459 7.9828h1.7961c.1493 0 .2942-.0068.4356-.0193l.2756-1.4232c-.1718.0306-.3557.0469-.5521.0469z"/></svg>
